<svg xmlns="http://www.w3.org/2000/svg" width="24" height="24" viewBox="0 0 24 24" fill="none">
    <rect x="9.30005" y="3" width="5.4" height="2.7" rx="1" fill="#FAC220"/>
    <path fill-rule="evenodd" clip-rule="evenodd"
          d="M12 4.8C10.5959 4.8 9.23651 4.93412 7.92183 5.20235C6.76713 5.43794 5.85732 6.32776 5.59614 7.47694L5.18181 9.3H3.6C3.26863 9.3 3 9.56863 3 9.9V10.6938C3 10.9391 3.14937 11.1598 3.37717 11.2509L4.62594 11.7504C4.54222 12.1525 4.5 12.5623 4.5 12.9732V17.7C4.5 18.0314 4.76863 18.3 5.1 18.3H6.49378C6.73912 18.3 6.95975 18.1506 7.05087 17.9228L7.5 16.8H16.5L16.9491 17.9228C17.0403 18.1506 17.2609 18.3 17.5062 18.3H18.9C19.2314 18.3 19.5 18.0314 19.5 17.7V12.9732C19.5 12.5623 19.4578 12.1525 19.3741 11.7504L20.6228 11.2509C20.8506 11.1598 21 10.9391 21 10.6938V9.9C21 9.56863 20.7314 9.3 20.4 9.3H18.8182L18.4038 7.47693C18.1427 6.32776 17.2329 5.43795 16.0782 5.20235C14.7635 4.93412 13.4041 4.8 12 4.8ZM12 9.9C14.2881 9.9 16.5762 10.249 17.5333 10.4147L16.9411 7.80937C16.8106 7.23478 16.3557 6.78987 15.7783 6.67207C14.5635 6.42421 13.3045 6.3 12 6.3C10.6955 6.3 9.43654 6.42421 8.22169 6.67207C7.64433 6.78986 7.18943 7.23478 7.05884 7.80937L6.46673 10.4147C7.42383 10.249 9.71191 9.9 12 9.9ZM8.7 13.65C8.7 14.3956 8.09558 15 7.35 15C6.60442 15 6 14.3956 6 13.65C6 12.9044 6.60442 12.3 7.35 12.3C8.09558 12.3 8.7 12.9044 8.7 13.65ZM16.65 15C17.3956 15 18 14.3956 18 13.65C18 12.9044 17.3956 12.3 16.65 12.3C15.9044 12.3 15.3 12.9044 15.3 13.65C15.3 14.3956 15.9044 15 16.65 15Z"
          fill="#21201F"/>
</svg>