<svg xmlns="http://www.w3.org/2000/svg" width="24" height="24" viewBox="0 0 24 24" fill="none">
    <path fill-rule="evenodd" clip-rule="evenodd"
          d="M11.1666 8.24999L15.5059 3.91073C15.6622 3.75445 15.8741 3.66666 16.0951 3.66666H17.4166L13.9791 8.24999H21.5833L21.3434 9.32936C21.2401 9.79424 20.8278 10.125 20.3516 10.125C20.1589 10.125 19.9928 10.2603 19.9536 10.4489L18.5253 17.3383C18.365 18.1119 17.6835 18.6667 16.8934 18.6667H7.10654C6.31647 18.6667 5.63496 18.1119 5.47457 17.3383L4.04628 10.4489C4.00717 10.2603 3.84098 10.125 3.64833 10.125C3.17211 10.125 2.75979 9.79424 2.65649 9.32936L2.41663 8.24999H11.1666ZM6.58329 10.75H8.84024L9.29163 16.5833H7.91464C7.66803 16.5833 7.45824 16.4035 7.42052 16.1598L6.58329 10.75ZM10.8715 10.75H13.1284L12.9027 16.5833H11.0972L10.8715 10.75ZM17.4166 10.75H15.1597L14.7083 16.5833H16.0853C16.3319 16.5833 16.5417 16.4035 16.5794 16.1598L17.4166 10.75Z"
          fill="#21201F"/>
</svg>