<svg xmlns="http://www.w3.org/2000/svg" width="24" height="24" fill="none">
    <path d="M9.139 2.833h.52a.417.417 0 01.373.603l-2.615 5.23h-2.25l3.257-5.428a.833.833 0 01.715-.405z"
          fill="#21201F"/>
    <path fill-rule="evenodd" clip-rule="evenodd"
          d="M3.918 12.273l1.421 6.253c.147.645.22.968.4 1.23.153.224.382.424.624.546.284.144.599.172 1.229.23 1.183.107 2.795.218 4.408.218 1.613 0 3.225-.111 4.409-.218.63-.058.944-.086 1.228-.23.242-.122.47-.322.624-.546.18-.262.253-.585.4-1.23l1.421-6.253c-1.91.243-4.996.56-8.082.56-3.086 0-6.171-.317-8.082-.56zm3.98 2.546c-.023-.11-.034-.164-.019-.207a.167.167 0 01.073-.09c.04-.022.095-.022.207-.022h1.1c.085 0 .128 0 .161.016.03.014.055.037.072.065.02.032.024.074.032.159l.363 3.633c.01.102.016.153-.001.192a.167.167 0 01-.073.081c-.038.02-.089.02-.191.02h-.737c-.078 0-.116 0-.148-.013a.166.166 0 01-.07-.058c-.02-.028-.028-.066-.043-.143l-.727-3.633zm3.292-.224c-.018.037-.016.086-.012.182l.145 3.634c.004.09.005.134.024.169.017.03.042.054.073.07.034.017.08.017.17.017h.82c.09 0 .136 0 .17-.018a.167.167 0 00.073-.07c.018-.034.02-.079.024-.168l.145-3.634c.004-.096.006-.145-.011-.182a.167.167 0 00-.074-.076c-.036-.02-.084-.02-.181-.02h-1.112c-.097 0-.145 0-.181.02a.167.167 0 00-.073.076zm3.286.145c.008-.085.013-.127.032-.16a.167.167 0 01.072-.064c.034-.016.076-.016.161-.016h1.1c.112 0 .168 0 .207.023.034.02.06.052.073.09.015.042.004.097-.018.206l-.727 3.633a.391.391 0 01-.043.143.167.167 0 01-.07.058c-.031.014-.07.014-.148.014h-.737c-.102 0-.153 0-.19-.02a.167.167 0 01-.074-.082c-.017-.04-.012-.09-.001-.192l.363-3.633z"
          fill="#21201F"/>
    <path d="M18.834 8.667l-3.257-5.43a.833.833 0 00-.715-.404h-.52a.417.417 0 00-.373.603l2.615 5.23h2.25zM2.835 10.274c-.002.03-.002.065-.002.134a.846.846 0 00.746.882C5.062 11.522 8.53 12 12 12c3.47 0 6.94-.478 8.42-.71.046-.007.069-.01.095-.016a.846.846 0 00.65-.76c.002-.027.002-.053.002-.106 0-.07 0-.104-.002-.134a.833.833 0 00-.773-.772c-.03-.002-.064-.002-.134-.002H3.742c-.07 0-.105 0-.134.002a.833.833 0 00-.773.772z"
          fill="#21201F"/>
</svg>