<svg xmlns="http://www.w3.org/2000/svg" width="15" height="20" viewBox="0 0 15 20" fill="none">
    <path fill-rule="evenodd" clip-rule="evenodd"
          d="M14.1666 8.33333C13.2777 10 11.9999 10.8333 10.3333 10.8333C8.66659 10.8333 7.38881 10 6.49992 8.33333L6.81327 0.499601C6.82443 0.220507 7.05394 0 7.33325 0H7.67471C7.76352 0 7.83673 0.0696422 7.84117 0.158344L8.12492 5.83333H9.54159L9.82534 0.158344C9.82977 0.0696422 9.90298 0 9.99179 0H10.6747C10.7635 0 10.8367 0.0696422 10.8412 0.158344L11.1249 5.83333H12.5416L12.8253 0.158344C12.8298 0.0696422 12.903 0 12.9918 0H13.3333C13.6126 0 13.8421 0.220507 13.8532 0.499601L14.1666 8.33333ZM11.2584 11.5453L11.4754 19.1429C11.4886 19.6029 11.1263 19.9865 10.6662 19.9997C10.6583 19.9999 10.6504 20 10.6424 20H10.0241C9.56383 20 9.19074 19.6269 9.19074 19.1667C9.19074 19.1587 9.19085 19.1508 9.19108 19.1429L9.40815 11.5453C9.71652 11.6262 10.0249 11.6667 10.3333 11.6667C10.6416 11.6667 10.95 11.6262 11.2584 11.5453ZM4.49992 0.879546V20H3.90125C2.98078 20 2.23458 19.2538 2.23458 18.3333C2.23458 18.3111 2.23503 18.2889 2.23592 18.2667L2.49992 11.6667C2.16659 10.8007 1.44436 10.2451 0.333252 10C0.333252 5.56515 1.23758 2.33952 3.04622 0.323116C3.35354 -0.0194975 3.8804 -0.048124 4.22301 0.259189C4.39924 0.417258 4.49992 0.642816 4.49992 0.879546Z"
          fill="#21201F"/>
</svg>